<svg width="80" height="80" viewBox="0 0 80 80" fill="none" xmlns="http://www.w3.org/2000/svg">
<path d="M40 80C50.6087 80 60.7828 75.7857 68.2843 68.2843C75.7857 60.7828 80 50.6087 80 40C80 29.3913 75.7857 19.2172 68.2843 11.7157C60.7828 4.21427 50.6087 0 40 0C29.3913 0 19.2172 4.21427 11.7157 11.7157C4.21427 19.2172 0 29.3913 0 40C0 50.6087 4.21427 60.7828 11.7157 68.2843C19.2172 75.7857 29.3913 80 40 80ZM44.65 32.94L39.65 56.465C39.3 58.165 39.795 59.13 41.17 59.13C42.14 59.13 43.605 58.78 44.6 57.9L44.16 59.98C42.725 61.71 39.56 62.97 36.835 62.97C33.32 62.97 31.825 60.86 32.795 56.375L36.485 39.035C36.805 37.57 36.515 37.04 35.05 36.685L32.795 36.28L33.205 34.375L44.655 32.94H44.65ZM40 27.5C38.6739 27.5 37.4021 26.9732 36.4645 26.0355C35.5268 25.0979 35 23.8261 35 22.5C35 21.1739 35.5268 19.9021 36.4645 18.9645C37.4021 18.0268 38.6739 17.5 40 17.5C41.3261 17.5 42.5979 18.0268 43.5355 18.9645C44.4732 19.9021 45 21.1739 45 22.5C45 23.8261 44.4732 25.0979 43.5355 26.0355C42.5979 26.9732 41.3261 27.5 40 27.5Z" fill="#FC9E9E"/>
</svg>
