<svg width="92" height="37" viewBox="0 0 92 37" fill="none" xmlns="http://www.w3.org/2000/svg">
<g clip-path="url(#clip0_683_529)">
<path d="M34.7415 2.55176H0.643555V36.3621H34.7415V2.55176Z" stroke="#FFB4B4" stroke-width="2"/>
<path d="M24.6427 30.8962C24.442 30.8962 24.3107 30.812 24.2489 30.6436C24.1872 30.4752 24.1563 30.1613 24.1563 29.702V28.7145C24.1563 27.4284 24.2335 24.8104 24.3879 20.8603C24.4497 18.9159 24.5037 17.4308 24.55 16.405L24.5964 14.9122C24.6272 14.2845 24.6581 13.3276 24.689 12.0415C23.9633 13.6491 22.674 16.2136 20.8211 19.735C18.7984 23.5473 17.5555 25.9204 17.0923 26.8543C16.9378 27.1758 16.7448 27.3366 16.5132 27.3366C16.2971 27.3366 16.1427 27.2294 16.05 27.015C16.0191 26.8773 15.9805 26.7165 15.9342 26.5328C15.9033 26.349 15.8647 26.1424 15.8184 25.9127L14.2666 19.0001C13.6336 16.2289 13.0854 13.7257 12.6222 11.4904C12.0972 14.139 11.302 17.6451 10.2366 22.0086C9.80431 23.7539 9.45689 25.1702 9.1944 26.2572C8.93191 27.3442 8.72347 28.2016 8.56906 28.8293L8.19849 30.4139C8.05952 30.7202 7.85108 30.8733 7.57315 30.8733C7.34154 30.8733 7.20257 30.7202 7.15625 30.4139C7.57315 28.1327 8.40694 24.374 9.65762 19.1379C10.8157 14.407 11.6263 11.0157 12.0895 8.96415C12.1358 8.81105 12.2208 8.68091 12.3443 8.57374C12.4832 8.46657 12.6145 8.41298 12.738 8.41298C12.9387 8.41298 13.0777 8.54312 13.1549 8.80339C13.788 11.4827 14.4365 14.4146 15.1004 17.5992C15.7489 20.7225 16.2816 23.1568 16.6985 24.9022C17.5014 23.5396 18.2426 22.2076 18.922 20.9062C19.6013 19.5895 20.4737 17.8748 21.5391 15.7619L22.1876 14.4759C23.0214 12.7917 23.9633 10.9468 25.0133 8.94119C25.2294 8.57374 25.461 8.39001 25.7081 8.39001C25.9397 8.39001 26.0555 8.50484 26.0555 8.7345V8.80339C25.6232 15.938 25.3684 22.9272 25.2912 29.7709C25.3221 29.8628 25.3375 29.947 25.3375 30.0235C25.3375 30.2379 25.268 30.4369 25.1291 30.6206C24.9901 30.8044 24.828 30.8962 24.6427 30.8962ZM34.0475 30.6513C33.8107 30.6513 33.5894 30.5288 33.3835 30.2838C33.1879 30.0286 33.0901 29.7582 33.0901 29.4724C33.0901 28.8395 33.26 27.7678 33.5997 26.2572C33.3423 26.8084 33.0078 27.3748 32.5961 27.9566C32.1946 28.5282 31.7983 29.0335 31.4071 29.4724C31.016 29.9113 30.7277 30.197 30.5425 30.3297C30.2851 30.5237 30.002 30.6206 29.6932 30.6206C29.1065 30.6206 28.8131 30.2532 28.8131 29.5183C28.8131 28.8038 29.0859 27.9158 29.6315 26.8543C30.177 25.7826 30.8255 24.8537 31.577 24.0678C32.3284 23.2921 32.9357 22.9042 33.399 22.9042C33.8725 22.9042 34.1401 23.1084 34.2019 23.5166C34.2327 23.6391 34.2482 23.7718 34.2482 23.9147C34.2997 23.8841 34.3563 23.8688 34.418 23.8688C34.6548 23.8688 34.7732 23.981 34.7732 24.2056V24.2668L34.5879 24.9405C34.4438 25.4508 34.2945 26.2062 34.1401 27.2064C33.9857 28.2067 33.9085 29.0386 33.9085 29.702L34.0629 29.7939C34.31 29.947 34.4335 30.1001 34.4335 30.2532C34.4335 30.3553 34.3974 30.4471 34.3254 30.5288C34.2533 30.6104 34.1607 30.6513 34.0475 30.6513ZM29.8167 29.8245C29.93 29.8245 30.0226 29.7888 30.0947 29.7173C31.1446 28.8293 32.0762 27.5994 32.8894 26.0275C33.3526 25.1599 33.6048 24.6445 33.646 24.4812C33.6666 24.2975 33.6769 24.1852 33.6769 24.1444C33.6769 24.0423 33.6512 23.9504 33.5997 23.8688C33.5482 23.7871 33.4813 23.7463 33.399 23.7463C33.296 23.7463 33.1622 23.7922 32.9975 23.8841C32.5858 24.0984 32.0968 24.5526 31.5307 25.2467C30.9748 25.9408 30.5167 26.6757 30.1564 27.4514C29.7756 28.2373 29.5851 28.9365 29.5851 29.5489C29.5851 29.7326 29.6623 29.8245 29.8167 29.8245ZM37.4324 30.6972C36.9691 30.6972 36.6037 30.5543 36.3361 30.2685C36.0787 29.9827 35.9501 29.651 35.9501 29.2733C35.9501 28.9365 36.0067 28.6099 36.1199 28.2935C36.2331 27.9668 36.3978 27.6249 36.614 27.2677C36.8096 26.941 37.0206 26.6297 37.2471 26.3337C37.5559 25.9255 37.7772 25.6193 37.911 25.4151C38.3948 24.7006 38.6676 24.0831 38.7294 23.5626C38.647 23.3788 38.5029 23.287 38.297 23.287C38.0809 23.287 37.8338 23.3942 37.5559 23.6085C37.3191 23.8024 37.1905 23.9555 37.1699 24.0678C37.1596 24.1597 37.1081 24.2515 37.0155 24.3434C36.9331 24.4353 36.8559 24.4812 36.7838 24.4812C36.578 24.4812 36.475 24.3893 36.475 24.2056C36.475 23.9504 36.5831 23.7004 36.7993 23.4554C37.0155 23.2002 37.2831 22.991 37.6022 22.8277C37.9213 22.6644 38.2301 22.5827 38.5286 22.5827C39.136 22.5827 39.4396 22.9399 39.4396 23.6544C39.4396 24.2362 38.9764 25.1395 38.05 26.3644C37.1133 27.5994 36.6449 28.467 36.6449 28.9671C36.6449 29.3244 36.7221 29.5846 36.8765 29.7479C37.0309 29.901 37.2162 29.9776 37.4324 29.9776C37.6279 29.9776 37.7926 29.9419 37.9265 29.8704C38.1941 29.7377 38.508 29.4928 38.8683 29.1355C39.2389 28.7681 39.5117 28.5844 39.6867 28.5844C39.8617 28.5844 39.9492 28.6711 39.9492 28.8446C39.9492 28.9569 39.908 29.059 39.8256 29.1508C39.3521 29.6816 38.9455 30.0746 38.6058 30.3297C38.2661 30.5747 37.875 30.6972 37.4324 30.6972ZM45.4192 30.7737C45.306 30.7737 45.1825 30.6819 45.0487 30.4982C44.9251 30.3042 44.8634 30.1358 44.8634 29.9929V29.7326C44.8634 29.4162 45.0847 28.4619 45.5273 26.8696L45.7281 26.0275L45.3112 26.9002C45.1773 27.237 44.9612 27.7117 44.6627 28.3241C43.9009 29.9368 43.0877 30.7431 42.223 30.7431C41.7084 30.7431 41.3584 30.4624 41.1731 29.9011C41.1216 29.7173 41.0959 29.4877 41.0959 29.2121C41.0959 28.6405 41.204 27.9107 41.4201 27.0227C41.5437 26.5124 41.6466 26.1347 41.7289 25.8897L41.8525 25.4917C41.9657 25.1038 42.0789 24.6955 42.1922 24.2668C42.3157 23.8279 42.3826 23.4962 42.3929 23.2717C42.4238 23.1696 42.4804 23.0828 42.5627 23.0114C42.6554 22.9399 42.7532 22.9042 42.8561 22.9042C42.959 22.9042 43.0414 23.0369 43.1032 23.3023C43.1032 23.5677 43.0517 23.8943 42.9488 24.2822C42.8458 24.6598 42.7429 24.9966 42.6399 25.2926C42.5473 25.5886 42.4907 25.7775 42.4701 25.8591C42.0481 27.1758 41.837 28.319 41.837 29.2886C41.837 29.5948 41.9554 29.8092 42.1922 29.9317C42.2745 29.9725 42.3877 29.9929 42.5319 29.9929C42.8201 29.9929 43.1649 29.7071 43.5664 29.1355C43.937 28.6048 44.3127 27.9413 44.6935 27.1452C45.0744 26.349 45.3832 25.6244 45.62 24.9711C45.867 24.2668 46.0729 23.7514 46.2376 23.4248C46.4023 23.0982 46.5824 22.9348 46.778 22.9348C46.953 22.9348 47.0405 23.0216 47.0405 23.1951C47.0405 23.3278 46.9582 23.6902 46.7935 24.2822C46.639 24.7823 46.5361 25.1395 46.4846 25.3539C46.4332 25.558 46.3714 25.8489 46.2994 26.2266L45.9288 28.3088L45.7589 29.1815C45.7486 29.2733 45.7229 29.4111 45.6817 29.5948C45.6817 29.7888 45.7126 29.9164 45.7744 29.9776L45.9133 30.1613C45.9442 30.1919 45.9597 30.2583 45.9597 30.3604C45.9597 30.4624 45.8979 30.5543 45.7744 30.6359C45.6611 30.7278 45.5428 30.7737 45.4192 30.7737ZM47.7968 30.7737C47.3954 30.7737 47.0711 30.6615 46.8241 30.4369C46.752 30.3757 46.716 30.2889 46.716 30.1766C46.716 30.0746 46.7623 29.9827 46.855 29.9011C46.9373 29.8194 47.0351 29.7786 47.1483 29.7786C47.2616 29.7786 47.3388 29.8143 47.3799 29.8857C47.452 29.9572 47.5138 30.0082 47.5652 30.0388C47.627 30.0593 47.7351 30.0695 47.8895 30.0695C48.1983 30.0695 48.5328 29.8653 48.8931 29.457C49.0269 29.3244 49.2225 29.0845 49.4799 28.7375C49.8916 28.1863 50.2159 27.7729 50.4526 27.4973C50.5247 27.4055 50.6327 27.2779 50.7769 27.1146C50.8489 27.0125 50.957 26.8798 51.1011 26.7165L51.3327 26.4409C50.7974 26.9206 50.3497 27.1605 49.9894 27.1605C49.7423 27.1605 49.5416 27.0839 49.3872 26.9308C49.2431 26.7675 49.171 26.5226 49.171 26.1959C49.171 25.8387 49.3254 25.3692 49.6343 24.7874C49.9431 24.2056 50.3136 23.7106 50.746 23.3023C51.2195 22.8838 51.657 22.6746 52.0584 22.6746C52.4599 22.6746 52.7738 22.8124 53.0003 23.0879C53.0106 23.1084 53.0672 23.1951 53.1701 23.3482C53.201 23.3278 53.2576 23.3176 53.34 23.3176C53.4841 23.3176 53.5716 23.4044 53.6025 23.5779C53.6025 24.0576 53.4378 24.5833 53.1084 25.1548C53.026 25.2875 52.9643 25.359 52.9231 25.3692L52.8613 25.706C52.7687 26.2164 52.6915 26.6144 52.6297 26.9002C52.3003 28.4619 52.1202 29.457 52.0893 29.8857C52.0584 30.2328 52.0172 30.4573 51.9658 30.5594C51.9143 30.6513 51.8062 30.6972 51.6415 30.6972C51.4974 30.6972 51.4099 30.6717 51.379 30.6206C51.3482 30.5594 51.3327 30.4675 51.3327 30.3451C51.4357 29.2937 51.6776 27.9464 52.0584 26.3031C51.482 26.9462 50.9519 27.6096 50.468 28.2935L49.5107 29.5948C49.2431 29.9623 48.9806 30.2532 48.7233 30.4675C48.4762 30.6717 48.1674 30.7737 47.7968 30.7737ZM50.2364 26.6399C50.6791 26.6399 51.2298 26.2725 51.8886 25.5376C52.0842 25.3233 52.2231 25.165 52.3055 25.063C52.429 24.573 52.5474 24.1954 52.6606 23.93C52.5268 23.6851 52.4136 23.5371 52.3209 23.486C52.2489 23.4452 52.1459 23.4248 52.0121 23.4248C51.7445 23.4248 51.4357 23.5779 51.0857 23.8841C50.7357 24.1903 50.4475 24.5526 50.221 24.9711C49.9945 25.3896 49.8813 25.7417 49.8813 26.0275C49.8813 26.4358 49.9997 26.6399 50.2364 26.6399ZM59.5711 31.2024C59.4064 31.2024 59.3086 31.0953 59.2777 30.8809C59.5865 28.3496 60.2659 24.869 61.3159 20.4393C61.3776 20.1943 61.4034 20.0871 61.3931 20.1177C61.496 19.6584 61.5887 19.2961 61.671 19.0307C61.7534 18.7347 61.81 18.4846 61.8409 18.2805C61.8717 18.0662 61.8923 17.913 61.9026 17.8212L61.9953 17.2547C62.0056 17.1322 62.0313 16.9485 62.0725 16.7035C60.899 16.6729 60.0909 16.6576 59.6483 16.6576C59.2057 16.6576 58.7219 16.6729 58.1969 16.7035C57.9807 16.6729 57.8726 16.5862 57.8726 16.4433C57.8726 16.3004 57.9395 16.1881 58.0734 16.1064C58.2072 16.0248 58.4028 15.9788 58.6601 15.9686C58.7527 15.9584 58.902 15.9533 59.1079 15.9533L62.2577 16.0146C62.4019 15.5859 62.5974 15.3715 62.8445 15.3715C62.9886 15.3715 63.0761 15.4583 63.107 15.6318L63.1379 15.938L63.1224 16.0146L63.8945 15.9686L64.5276 15.938L65.3922 15.8768C65.7731 15.8462 66.2003 15.8308 66.6738 15.8308H67.2297C67.3223 15.8308 67.3892 15.8257 67.4304 15.8155C67.6054 15.8666 67.6929 15.9533 67.6929 16.0758C67.6929 16.382 67.4407 16.5351 66.9363 16.5351C66.3701 16.5351 65.6753 16.5606 64.8518 16.6117C64.0797 16.6627 63.4004 16.6933 62.8136 16.7035C62.6077 17.7242 62.4019 18.6684 62.196 19.5359C61.9283 20.6689 61.5526 22.4449 61.0688 24.8639C60.5953 27.283 60.235 29.2529 59.988 30.7737C59.9674 30.886 59.9108 30.983 59.8181 31.0646C59.7358 31.1565 59.6534 31.2024 59.5711 31.2024Z" fill="#515151"/>
<path d="M64.068 30.7739C63.9033 30.7739 63.8106 30.6667 63.79 30.4523L63.9599 29.4878C64.0628 28.8345 64.1863 28.1252 64.3305 27.3597L64.4231 26.8085C64.6496 25.5122 64.7885 24.7569 64.84 24.5425C64.9532 24.022 65.0304 23.5831 65.0716 23.2259C65.1025 23.1238 65.1591 23.037 65.2414 22.9656C65.3341 22.8941 65.4267 22.8584 65.5194 22.8584C65.6429 22.8584 65.7304 22.9452 65.7819 23.1187C65.7819 23.282 65.7613 23.4657 65.7201 23.6699C65.6789 23.8025 65.6275 24.0832 65.5657 24.5119L65.3032 25.8745C66.4561 24.2823 67.434 23.2973 68.2369 22.9197C68.4222 22.8278 68.6075 22.7819 68.7928 22.7819C68.9678 22.7819 69.1582 22.9094 69.3641 23.1646C69.5803 23.4198 69.6883 23.6443 69.6883 23.8383C69.6883 24.0016 69.6472 24.1292 69.5648 24.221C69.4825 24.3129 69.3847 24.3588 69.2714 24.3588C69.117 24.3588 68.9781 24.2159 68.8545 23.9301C68.8443 23.9097 68.8185 23.8587 68.7773 23.777C68.7465 23.6852 68.7104 23.6188 68.6693 23.578C68.6384 23.527 68.6023 23.5014 68.5612 23.5014C68.4891 23.5014 68.345 23.5627 68.1288 23.6852C67.923 23.7974 67.5884 24.0985 67.1252 24.5885C66.6723 25.0682 66.3223 25.4765 66.0752 25.8133C66.1679 26.7728 66.3635 27.6199 66.662 28.3548C66.9605 29.0897 67.2848 29.5899 67.6347 29.8552C67.82 29.9879 67.995 30.0543 68.1597 30.0543C68.3347 30.0543 68.4737 30.0083 68.5766 29.9165C68.6898 29.8246 68.7773 29.6766 68.8391 29.4725C68.9215 29.2683 68.9884 29.1612 69.0398 29.151C69.0707 29.1305 69.1273 29.1203 69.2097 29.1203C69.2714 29.1203 69.3435 29.1561 69.4258 29.2275C69.4979 29.299 69.5339 29.4317 69.5339 29.6256C69.5339 29.8297 69.4464 30.0237 69.2714 30.2074C68.9317 30.585 68.5921 30.7739 68.2524 30.7739C67.2642 30.7739 66.4973 29.9675 65.9517 28.3548C65.715 27.6812 65.5657 27.1045 65.5039 26.6248C65.4731 26.6656 65.3598 26.8595 65.1642 27.2065L64.979 27.5434C64.8143 28.4314 64.6547 29.3653 64.5003 30.3452C64.49 30.4574 64.4385 30.5544 64.3459 30.6361C64.2533 30.7279 64.1606 30.7739 64.068 30.7739ZM75.6021 30.6514C75.3653 30.6514 75.144 30.5289 74.9381 30.2839C74.7425 30.0288 74.6448 29.7583 74.6448 29.4725C74.6448 28.8397 74.8146 27.7679 75.1543 26.2573C74.8969 26.8085 74.5624 27.375 74.1507 27.9568C73.7492 28.5283 73.3529 29.0336 72.9617 29.4725C72.5706 29.9114 72.2823 30.1972 72.0971 30.3299C71.8397 30.5238 71.5566 30.6208 71.2478 30.6208C70.6611 30.6208 70.3677 30.2533 70.3677 29.5184C70.3677 28.8039 70.6405 27.9159 71.1861 26.8544C71.7316 25.7827 72.3801 24.8539 73.1316 24.0679C73.883 23.2922 74.4903 22.9043 74.9536 22.9043C75.4271 22.9043 75.6947 23.1085 75.7565 23.5168C75.7874 23.6392 75.8028 23.7719 75.8028 23.9148C75.8543 23.8842 75.9109 23.8689 75.9726 23.8689C76.2094 23.8689 76.3278 23.9812 76.3278 24.2057V24.267L76.1425 24.9406C75.9984 25.451 75.8491 26.2063 75.6947 27.2065C75.5403 28.2068 75.4631 29.0387 75.4631 29.7021L75.6175 29.794C75.8646 29.9471 75.9881 30.1002 75.9881 30.2533C75.9881 30.3554 75.9521 30.4472 75.88 30.5289C75.8079 30.6105 75.7153 30.6514 75.6021 30.6514ZM71.3714 29.8246C71.4846 29.8246 71.5772 29.7889 71.6493 29.7174C72.6992 28.8294 73.6308 27.5995 74.444 26.0277C74.9072 25.1601 75.1594 24.6446 75.2006 24.4813C75.2212 24.2976 75.2315 24.1853 75.2315 24.1445C75.2315 24.0424 75.2058 23.9505 75.1543 23.8689C75.1028 23.7872 75.0359 23.7464 74.9536 23.7464C74.8506 23.7464 74.7168 23.7923 74.5521 23.8842C74.1404 24.0985 73.6514 24.5528 73.0853 25.2468C72.5294 25.9409 72.0713 26.6758 71.711 27.4515C71.3302 28.2374 71.1397 28.9366 71.1397 29.549C71.1397 29.7328 71.2169 29.8246 71.3714 29.8246ZM82.5227 30.7892C82.2344 30.7892 82.0131 30.7126 81.8587 30.5595C81.7146 30.4064 81.6425 30.2074 81.6425 29.9624C81.6425 29.7072 81.7095 29.2683 81.8433 28.6457L82.1984 26.7932C81.447 27.3545 80.7521 27.6352 80.1139 27.6352C79.6507 27.6352 79.2956 27.5128 79.0485 27.2678C79.0279 27.3699 79.0074 27.4719 78.9868 27.574C78.9765 27.6761 78.961 27.7781 78.9404 27.8802C78.8993 28.217 78.8478 28.559 78.786 28.906C78.6008 30.1206 78.3228 30.7279 77.9522 30.7279C77.7978 30.7279 77.7052 30.6208 77.6743 30.4064C77.767 29.6103 77.9934 28.3752 78.3537 26.7013C78.7243 25.0172 78.9868 23.8791 79.1412 23.2871C79.1721 23.185 79.2287 23.0983 79.311 23.0268C79.4037 22.9554 79.4963 22.9197 79.5889 22.9197C79.7125 22.9197 79.8 23.0064 79.8514 23.1799C79.8514 23.3432 79.7588 23.874 79.5735 24.7722C79.4294 25.4561 79.3162 26.043 79.2338 26.5329C79.4603 26.7881 79.8154 26.9157 80.2992 26.9157C80.7727 26.9157 81.2926 26.6809 81.8587 26.2114C82.0337 26.0583 82.1984 25.895 82.3528 25.7214L82.5844 24.6957C82.7594 23.9505 82.9498 23.4351 83.1557 23.1493C83.2587 22.986 83.3976 22.9043 83.5726 22.9043C83.7476 22.9043 83.8351 23.0013 83.8351 23.1952V23.2718C83.269 25.2009 82.9138 26.5992 82.7697 27.4668C82.6359 28.2119 82.5484 28.7988 82.5072 29.2275C82.4763 29.5643 82.4557 29.7481 82.4455 29.7787L82.43 29.9777C82.43 30.039 82.4557 30.0696 82.5072 30.0696C82.5484 30.0696 82.5844 30.0543 82.6153 30.0237C82.6668 29.993 82.7491 29.9777 82.8623 29.9777C83.0373 29.9777 83.1248 30.0696 83.1248 30.2533C83.1248 30.6105 82.9241 30.7892 82.5227 30.7892ZM89.3712 30.7739C89.258 30.7739 89.1344 30.682 89.0006 30.4983C88.8771 30.3043 88.8153 30.1359 88.8153 29.993V29.7328C88.8153 29.4163 89.0366 28.462 89.4793 26.8697L89.68 26.0277L89.2631 26.9003C89.1293 27.2372 88.9131 27.7118 88.6146 28.3242C87.8529 29.9369 87.0397 30.7432 86.175 30.7432C85.6603 30.7432 85.3103 30.4625 85.125 29.9012C85.0736 29.7174 85.0478 29.4878 85.0478 29.2122C85.0478 28.6406 85.1559 27.9108 85.3721 27.0228C85.4956 26.5125 85.5985 26.1348 85.6809 25.8899L85.8044 25.4918C85.9176 25.1039 86.0309 24.6957 86.1441 24.267C86.2676 23.8281 86.3345 23.4963 86.3448 23.2718C86.3757 23.1697 86.4323 23.083 86.5147 23.0115C86.6073 22.9401 86.7051 22.9043 86.8081 22.9043C86.911 22.9043 86.9933 23.037 87.0551 23.3024C87.0551 23.5678 87.0036 23.8944 86.9007 24.2823C86.7978 24.6599 86.6948 24.9968 86.5919 25.2928C86.4992 25.5888 86.4426 25.7776 86.422 25.8592C86 27.1759 85.789 28.3191 85.789 29.2888C85.789 29.595 85.9074 29.8093 86.1441 29.9318C86.2265 29.9726 86.3397 29.993 86.4838 29.993C86.772 29.993 87.1169 29.7072 87.5183 29.1357C87.8889 28.6049 88.2646 27.9414 88.6455 27.1453C89.0263 26.3492 89.3352 25.6245 89.5719 24.9712C89.819 24.267 90.0248 23.7515 90.1895 23.4249C90.3542 23.0983 90.5344 22.935 90.73 22.935C90.9049 22.935 90.9924 23.0217 90.9924 23.1952C90.9924 23.3279 90.9101 23.6903 90.7454 24.2823C90.591 24.7824 90.4881 25.1397 90.4366 25.354C90.3851 25.5581 90.3234 25.849 90.2513 26.2267L89.8807 28.3089L89.7109 29.1816C89.7006 29.2734 89.6749 29.4112 89.6337 29.595C89.6337 29.7889 89.6646 29.9165 89.7263 29.9777L89.8653 30.1614C89.8962 30.1921 89.9116 30.2584 89.9116 30.3605C89.9116 30.4625 89.8498 30.5544 89.7263 30.6361C89.6131 30.7279 89.4947 30.7739 89.3712 30.7739Z" fill="#515151"/>
</g>
<defs>
<clipPath id="clip0_683_529">
<rect width="92" height="37" fill="white"/>
</clipPath>
</defs>
</svg>
