<svg width="54" height="42" viewBox="0 0 54 42" fill="none" xmlns="http://www.w3.org/2000/svg">
<path d="M9.81702 41.7913V39.0115C9.81702 37.9456 9.1686 37.2509 8.05717 37.2509C7.50156 37.2509 6.89955 37.4362 6.48274 38.0385C6.15874 37.5288 5.69573 37.2509 5.00111 37.2509C4.53789 37.2509 4.07509 37.3897 3.70448 37.8994V37.3435H2.73206V41.7913H3.70448V39.3357C3.70448 38.5482 4.12129 38.1774 4.76971 38.1774C5.41771 38.1774 5.74213 38.5944 5.74213 39.3357V41.7913H6.71456V39.3357C6.71456 38.5482 7.17735 38.1774 7.77937 38.1774C8.42779 38.1774 8.75179 38.5944 8.75179 39.3357V41.7913H9.81702ZM24.2179 37.3435H22.6437V35.9999H21.6713V37.3435H20.7915V38.2236H21.6711V40.2624C21.6711 41.2818 22.0879 41.8839 23.1993 41.8839C23.6161 41.8839 24.0789 41.7451 24.4034 41.5598L24.1253 40.7257C23.8475 40.911 23.5235 40.9574 23.2919 40.9574C22.8289 40.9574 22.6437 40.6794 22.6437 40.216V38.2236H24.2179V37.3435ZM32.4605 37.2506C31.9049 37.2506 31.5345 37.5288 31.3029 37.8994V37.3435H30.3305V41.7913H31.3029V39.2894C31.3029 38.5482 31.6269 38.1312 32.2289 38.1312C32.4141 38.1312 32.6457 38.1776 32.8309 38.2238L33.1087 37.2973C32.9235 37.2509 32.6457 37.2509 32.4605 37.2509V37.2506ZM20.0042 37.7141C19.541 37.3897 18.8928 37.2509 18.1982 37.2509C17.087 37.2509 16.3462 37.8068 16.3462 38.6871C16.3462 39.4285 16.9018 39.8454 17.8742 39.9844L18.3372 40.0309C18.8466 40.1233 19.1244 40.2624 19.1244 40.4941C19.1244 40.8183 18.754 41.0501 18.1056 41.0501C17.4574 41.0501 16.948 40.8183 16.6238 40.5868L16.1608 41.328C16.6702 41.6986 17.3648 41.8839 18.0592 41.8839C19.3558 41.8839 20.0969 41.2818 20.0969 40.4477C20.0969 39.6601 19.4948 39.243 18.5686 39.1041L18.1056 39.0577C17.6888 39.0113 17.3648 38.9188 17.3648 38.6409C17.3648 38.3165 17.6888 38.1312 18.1982 38.1312C18.754 38.1312 19.3096 38.3627 19.5874 38.5018L20.0042 37.7141ZM45.843 37.2509C45.2872 37.2509 44.9168 37.5288 44.6852 37.8994V37.3435H43.7128V41.7913H44.6852V39.2894C44.6852 38.5482 45.0094 38.1312 45.6112 38.1312C45.7966 38.1312 46.0282 38.1776 46.2134 38.2238L46.4912 37.2973C46.306 37.2509 46.0282 37.2509 45.843 37.2509ZM33.433 39.5674C33.433 40.911 34.359 41.8839 35.7946 41.8839C36.4428 41.8839 36.9058 41.7451 37.3688 41.3745L36.9058 40.5868C36.5354 40.8648 36.165 41.0036 35.7482 41.0036C34.961 41.0036 34.4054 40.4477 34.4054 39.5674C34.4054 38.7335 34.961 38.1774 35.7482 38.1312C36.165 38.1312 36.5354 38.27 36.9058 38.5482L37.3688 37.7606C36.9058 37.3897 36.4428 37.2509 35.7946 37.2509C34.359 37.2509 33.433 38.2238 33.433 39.5674ZM42.4164 39.5674V37.3435H41.4439V37.8994C41.1197 37.4826 40.6567 37.2509 40.0547 37.2509C38.8045 37.2509 37.8321 38.2238 37.8321 39.5674C37.8321 40.911 38.8045 41.8839 40.0547 41.8839C40.7029 41.8839 41.1661 41.6524 41.4439 41.2354V41.7913H42.4164V39.5674ZM38.8507 39.5674C38.8507 38.7797 39.3601 38.1312 40.1935 38.1312C40.9807 38.1312 41.5365 38.7335 41.5365 39.5674C41.5365 40.3551 40.9807 41.0036 40.1935 41.0036C39.3601 40.9572 38.8507 40.3551 38.8507 39.5674ZM27.228 37.2509C25.9314 37.2509 25.0052 38.1774 25.0052 39.5674C25.0052 40.9574 25.9312 41.8839 27.2742 41.8839C27.9224 41.8839 28.5708 41.6986 29.0803 41.2818L28.617 40.5868C28.2466 40.8648 27.7836 41.0501 27.3206 41.0501C26.7186 41.0501 26.1166 40.7721 25.9776 39.9842H29.2655V39.6138C29.3119 38.1774 28.4782 37.2509 27.2278 37.2509H27.228ZM27.228 38.0847C27.8298 38.0847 28.2468 38.4556 28.3392 39.1506H26.024C26.1166 38.5482 26.5334 38.0847 27.228 38.0847ZM51.3534 39.5674V35.5829H50.3809V37.8994C50.0567 37.4826 49.5937 37.2509 48.9917 37.2509C47.7415 37.2509 46.7691 38.2238 46.7691 39.5674C46.7691 40.911 47.7415 41.8839 48.9917 41.8839C49.6401 41.8839 50.1031 41.6524 50.3809 41.2354V41.7913H51.3534V39.5674ZM47.7879 39.5674C47.7879 38.7797 48.2971 38.1312 49.1307 38.1312C49.9179 38.1312 50.4735 38.7335 50.4735 39.5674C50.4735 40.3551 49.9179 41.0036 49.1307 41.0036C48.2971 40.9572 47.7879 40.3551 47.7879 39.5674ZM15.2809 39.5674V37.3435H14.3085V37.8994C13.9843 37.4826 13.5213 37.2509 12.9193 37.2509C11.6691 37.2509 10.6966 38.2238 10.6966 39.5674C10.6966 40.911 11.6691 41.8839 12.9193 41.8839C13.5677 41.8839 14.0307 41.6524 14.3085 41.2354V41.7913H15.2809V39.5674ZM11.6691 39.5674C11.6691 38.7797 12.1785 38.1312 13.0119 38.1312C13.7991 38.1312 14.3549 38.7335 14.3549 39.5674C14.3549 40.3551 13.7991 41.0036 13.0119 41.0036C12.1785 40.9572 11.6691 40.3551 11.6691 39.5674Z" fill="#515151"/>
<path d="M19.6801 3.56746H34.2664V29.7913H19.6801V3.56746Z" fill="#979797"/>
<path d="M20.6063 16.6795C20.6063 11.3514 23.1067 6.62545 26.95 3.56747C24.1256 1.34358 20.5601 0 16.6704 0C7.45516 0 0 7.45933 0 16.6795C0 25.8994 7.45516 33.359 16.6702 33.359C20.5599 33.359 24.1253 32.0154 26.95 29.7913C23.1067 26.7798 20.6063 22.0076 20.6063 16.6795Z" fill="#838383"/>
<path d="M53.9464 16.6795C53.9464 25.8994 46.4912 33.359 37.2762 33.359C33.3865 33.359 29.8211 32.0154 26.9964 29.7913C30.8861 26.7335 33.3403 22.0076 33.3403 16.6795C33.3403 11.3514 30.8397 6.62545 26.9964 3.56747C29.8209 1.34358 33.3865 0 37.2762 0C46.4912 0 53.9466 7.50576 53.9466 16.6795H53.9464Z" fill="#D7D7D7"/>
</svg>
