<svg width="76" height="22" viewBox="0 0 76 22" fill="none" xmlns="http://www.w3.org/2000/svg">
<g clip-path="url(#clip0_564:201)">
<path d="M20.4801 0.00498621V0.01424C20.4707 0.01424 17.5105 0.00498581 16.7211 2.79012C15.9975 5.34393 13.9583 12.3916 13.9019 12.5859H13.3381C13.3381 12.5859 11.2518 5.38094 10.5188 2.78087C9.72945 -0.00426793 6.75987 0.00498621 6.75987 0.00498621H0V21.188H6.76301V8.60704H7.32685L11.2738 21.1879H15.9693L19.9162 8.61629H20.4801V21.1879H27.2431V0.00498621H20.4801ZM45.1859 0.00498621C45.1859 0.00498621 43.203 0.180791 42.2727 2.22579L37.4831 12.5859H36.9193V0.00498621H30.1563V21.188H36.5434C36.5434 21.188 38.6202 21.003 39.5507 18.9673L44.2462 8.60713H44.8101V21.188H51.5731V0.00498621H45.1859ZM54.5802 9.62496V21.188H61.3432V14.4365H68.6701C71.8652 14.4365 74.5686 12.4286 75.5741 9.62804H54.5802V9.62496Z" fill="#7E7E7E"/>
<path d="M68.6732 0.00462341H53.631C54.3828 4.0389 57.4557 7.27435 61.4277 8.32919C62.3498 8.5751 63.3009 8.69958 64.2563 8.6994H75.8495C75.9529 8.21824 75.9999 7.72784 75.9999 7.21893C76 3.2339 72.7203 0.00462341 68.6732 0.00462341Z" fill="#C3C3C3"/>
</g>
<defs>
<clipPath id="clip0_564:201">
<rect width="76" height="21.1923" fill="white"/>
</clipPath>
</defs>
</svg>
