<svg width="80" height="80" viewBox="0 0 80 80" fill="none" xmlns="http://www.w3.org/2000/svg">
<path d="M66.667 13.3333H13.3337C9.66699 13.3333 6.66699 16.3333 6.66699 20V60C6.66699 63.6666 9.66699 66.6666 13.3337 66.6666H66.667C70.3337 66.6666 73.3337 63.6666 73.3337 60V20C73.3337 16.3333 70.3337 13.3333 66.667 13.3333ZM65.3337 27.5L43.5337 41.1333C41.367 42.5 38.6337 42.5 36.467 41.1333L14.667 27.5C14.3328 27.3123 14.0401 27.0588 13.8066 26.7548C13.5732 26.4508 13.4039 26.1026 13.3089 25.7312C13.214 25.3599 13.1953 24.9731 13.2542 24.5943C13.313 24.2156 13.4481 23.8527 13.6513 23.5276C13.8544 23.2026 14.1214 22.9222 14.4361 22.7033C14.7508 22.4844 15.1066 22.3317 15.482 22.2543C15.8574 22.1769 16.2446 22.1765 16.6202 22.2531C16.9957 22.3297 17.3519 22.4818 17.667 22.7L40.0003 36.6666L62.3337 22.7C62.6488 22.4818 63.0049 22.3297 63.3805 22.2531C63.7561 22.1765 64.1433 22.1769 64.5187 22.2543C64.8941 22.3317 65.2499 22.4844 65.5646 22.7033C65.8792 22.9222 66.1462 23.2026 66.3494 23.5276C66.5525 23.8527 66.6876 24.2156 66.7465 24.5943C66.8053 24.9731 66.7867 25.3599 66.6917 25.7312C66.5968 26.1026 66.4275 26.4508 66.194 26.7548C65.9606 27.0588 65.6679 27.3123 65.3337 27.5Z" fill="#FC9E9E"/>
</svg>
