<svg width="80" height="80" viewBox="0 0 80 80" fill="none" xmlns="http://www.w3.org/2000/svg">
<path d="M0.390625 32.6719C0.15625 34.5469 0 36.4531 0 38.3906C0 55.4219 9.32813 70.25 23.1406 78.1094L25.7188 72.6719V35.5312L22.8594 32.6719H0.390625ZM80 35.5312C80 32.6719 77.1406 29.8125 74.2812 29.8125H51.4219C52.8438 24.0938 54.2812 18.3906 54.2812 15.5312C54.2812 9.8125 51.4219 4.10938 50 2.67188C49.9688 2.64062 48.5781 1.25 45.7188 1.25C41.4375 1.25 41.4375 5.53125 41.4375 5.53125C41.4375 5.60938 40.0156 12.6719 40.0156 15.5312C40.0156 18.3906 34.2969 29.8125 31.4375 32.6719L28.5781 34.0938V74.0938L31.4375 75.5156H62.8594C68.5781 75.5156 71.4375 72.6562 71.4375 69.7969C71.4375 66.9375 68.5781 64.0781 65.7188 64.0781C71.4375 64.0781 74.2969 61.2188 74.2969 58.3594C74.2969 55.5 71.4375 52.6406 68.5781 52.6406C74.2969 52.6406 77.1562 49.7812 77.1562 46.9219C77.1562 44.0625 74.2969 41.2031 71.4375 41.2031C77.1406 41.25 80 38.3906 80 35.5312Z" fill="#FC9E9E"/>
</svg>
