<svg width="80" height="80" viewBox="0 0 80 80" fill="none" xmlns="http://www.w3.org/2000/svg">
<path d="M79.9599 27.314L76.605 46.5603C76.1913 48.6864 74.4973 49.9791 72.5439 50.0034H23.6333L22.6623 55.4771H69.2773C71.7319 55.6637 73.3969 57.4025 73.4268 59.6265C73.2483 62.076 71.5096 63.7455 69.2773 63.7759H17.7182C14.9297 63.5251 13.267 61.3024 13.5687 58.8319L15.7759 46.825L12.421 13.0997L2.88613 10.0982C0.55606 9.17306 -0.39494 7.0652 0.14926 4.88933C1.05413 2.62167 3.22233 1.5856 5.35813 2.15247L17.5416 6.03707C19.1829 6.65233 20.1271 7.99586 20.3667 9.56853L21.073 16.2783L76.3401 22.4582C78.8794 23.0083 80.258 25.0197 79.9599 27.314ZM30.3515 72.4885C30.3515 75.9869 27.5155 78.823 24.0169 78.823C20.5185 78.823 17.6825 75.9869 17.6825 72.4885C17.6825 68.99 20.5185 66.1539 24.0169 66.1539C27.5154 66.154 30.3515 68.9901 30.3515 72.4885ZM68.1683 72.4885C68.1683 75.9869 65.3322 78.823 61.8337 78.823C58.3352 78.823 55.4992 75.9869 55.4992 72.4885C55.4992 68.99 58.3352 66.1539 61.8337 66.1539C65.3322 66.154 68.1683 68.9901 68.1683 72.4885Z" fill="#FC9E9E"/>
</svg>
