<svg width="50" height="50" viewBox="0 0 50 50" fill="none" xmlns="http://www.w3.org/2000/svg">
<circle cx="25" cy="25" r="25" fill="#FC9E9E"/>
<path d="M30.72 32.464V34H18.936V32.776L25.92 25.936C26.8 25.072 27.392 24.328 27.696 23.704C28.016 23.064 28.176 22.424 28.176 21.784C28.176 20.792 27.832 20.024 27.144 19.48C26.472 18.92 25.504 18.64 24.24 18.64C22.272 18.64 20.744 19.264 19.656 20.512L18.432 19.456C19.088 18.688 19.92 18.096 20.928 17.68C21.952 17.264 23.104 17.056 24.384 17.056C26.096 17.056 27.448 17.464 28.44 18.28C29.448 19.08 29.952 20.184 29.952 21.592C29.952 22.456 29.76 23.288 29.376 24.088C28.992 24.888 28.264 25.808 27.192 26.848L21.48 32.464H30.72Z" fill="black"/>
</svg>
