<svg width="80" height="80" viewBox="0 0 80 80" fill="none" xmlns="http://www.w3.org/2000/svg">
<path d="M40 5C20.6719 5 5 20.6719 5 40C5 59.3281 20.6719 75 40 75C59.3281 75 75 59.3281 75 40C75 20.6719 59.3281 5 40 5ZM40 69.0625C23.9531 69.0625 10.9375 56.0469 10.9375 40C10.9375 23.9531 23.9531 10.9375 40 10.9375C56.0469 10.9375 69.0625 23.9531 69.0625 40C69.0625 56.0469 56.0469 69.0625 40 69.0625ZM43.7266 38.1875L41.7422 37.7266V27.2344C44.7109 27.6406 46.5469 29.5 46.8594 31.7812C46.8984 32.0938 47.1641 32.3203 47.4766 32.3203H50.9844C51.3516 32.3203 51.6406 32 51.6094 31.6328C51.1328 26.7656 47.125 23.6406 41.7734 23.1016V20.5469C41.7734 20.2031 41.4922 19.9219 41.1484 19.9219H38.9531C38.6094 19.9219 38.3281 20.2031 38.3281 20.5469V23.125C32.7969 23.6641 28.4688 26.7188 28.4688 32.4219C28.4688 37.7031 32.3594 40.25 36.4453 41.2266L38.375 41.7188V52.8672C34.9219 52.4062 32.9844 50.5625 32.5859 48.0781C32.5391 47.7813 32.2734 47.5625 31.9688 47.5625H28.3594C27.9922 47.5625 27.7031 47.875 27.7344 48.2422C28.0859 52.5391 31.3438 56.4922 38.2969 57V59.4531C38.2969 59.7969 38.5781 60.0781 38.9219 60.0781H41.1406C41.4844 60.0781 41.7656 59.7969 41.7656 59.4453L41.75 56.9688C47.8672 56.4297 52.2422 53.1562 52.2422 47.2812C52.2344 41.8594 48.7891 39.4375 43.7266 38.1875ZM38.3672 36.9219C37.9297 36.7969 37.5625 36.6797 37.1953 36.5312C34.5547 35.5781 33.3281 34.0391 33.3281 32.0547C33.3281 29.2188 35.4766 27.6016 38.3672 27.2344V36.9219ZM41.7422 52.8906V42.4453C41.9844 42.5156 42.2031 42.5703 42.4297 42.6172C46.125 43.7422 47.3672 45.3047 47.3672 47.7031C47.3672 50.7578 45.0703 52.5938 41.7422 52.8906Z" fill="#FC9E9E"/>
</svg>
