<svg width="80" height="80" viewBox="0 0 80 80" fill="none" xmlns="http://www.w3.org/2000/svg">
<path fill-rule="evenodd" clip-rule="evenodd" d="M41.2363 1.90325L39.9997 1.40991L38.763 1.90325L5.42967 15.2366L3.33301 16.0766V63.9232L5.42967 64.7599L38.763 78.0932L39.9997 78.5899L41.2363 78.0932L74.5697 64.7599L76.6663 63.9232V16.0766L74.5697 15.2366L41.2363 1.90325ZM9.99967 23.2566V59.4099L36.6663 70.0766V33.9232L9.99967 23.2566ZM43.333 33.9232V70.0766L69.9997 59.4099V23.2566L43.333 33.9232ZM64.3563 18.3332L39.9997 8.58991L33.143 11.3332L57.4997 21.0766L64.3563 18.3332ZM15.643 18.3332L24.1663 14.9232L48.523 24.6666L39.9997 28.0766L15.643 18.3332Z" fill="#FC9E9E"/>
</svg>
