<svg width="80" height="80" viewBox="0 0 80 80" fill="none" xmlns="http://www.w3.org/2000/svg">
<g clip-path="url(#clip0_663_215)">
<path d="M40 6.95652C34.5455 6.95652 30.2841 8.87681 27.2159 12.7174C24.1477 16.558 22.6136 21.4674 22.6136 27.4457C22.5758 34.8732 25.0758 40.7609 30.1136 45.1087C30.7576 45.6884 30.9848 46.4312 30.7955 47.337L29.4886 49.9457C29.072 50.8152 28.4564 51.4946 27.642 51.9837C26.8277 52.4728 25.1136 53.1703 22.5 54.0761C22.3864 54.1123 19.9905 54.8551 15.3125 56.3043C10.6345 57.7536 8.14394 58.5507 7.84091 58.6957C4.65909 59.9638 2.57576 61.2862 1.59091 62.663C0.530303 64.9457 0 70.7246 0 80H80C80 70.7246 79.4697 64.9457 78.4091 62.663C77.4242 61.2862 75.3409 59.9638 72.1591 58.6957C71.8561 58.5507 69.3655 57.7536 64.6875 56.3043C60.0095 54.8551 57.6136 54.1123 57.5 54.0761C54.8864 53.1703 53.1724 52.4728 52.358 51.9837C51.5436 51.4946 50.928 50.8152 50.5114 49.9457L49.2045 47.337C49.0152 46.4312 49.2424 45.6884 49.8864 45.1087C54.9242 40.7609 57.4242 34.8732 57.3864 27.4457C57.3864 21.4674 55.8523 16.558 52.7841 12.7174C49.7159 8.87681 45.4545 6.95652 40 6.95652Z" fill="#FC9E9E"/>
</g>
<defs>
<clipPath id="clip0_663_215">
<rect width="80" height="80" fill="white"/>
</clipPath>
</defs>
</svg>
