<svg width="80" height="80" viewBox="0 0 80 80" fill="none" xmlns="http://www.w3.org/2000/svg">
<g clip-path="url(#clip0_680_719)">
<path d="M1.37715 80C1.08134 79.9965 0.79866 79.8569 0.590549 79.6116C0.382437 79.3663 0.265707 79.0351 0.265722 78.69V72.7467C0.265722 72.0233 0.768579 71.4367 1.38858 71.4367H5.23715V28.9067V28.9033C5.2375 28.6271 5.2751 28.3526 5.34858 28.09L5.34286 28.11C3.25283 27.422 1.43403 25.9048 0.200008 23.82L0.180008 23.7833C0.0617546 23.5711 -0.000805102 23.3232 7.82299e-06 23.07V1.31333C7.82299e-06 0.59 0.502865 0.00333333 1.12287 0H78.3057C78.9257 0 79.4286 0.586667 79.4286 1.31V23.0667C79.4281 23.3211 79.3646 23.57 79.2457 23.7833L79.2486 23.7767C78.3719 25.2195 77.2248 26.4101 75.8945 27.258C74.5642 28.1059 73.0857 28.5888 71.5714 28.67H71.5486V71.4333H74.6657C75.2857 71.4333 75.7886 72.02 75.7886 72.7433V78.6867C75.7886 79.0341 75.6703 79.3673 75.4597 79.613C75.2491 79.8586 74.9635 79.9967 74.6657 79.9967H74.6629L1.37715 80ZM67.0629 70.1167V28.91C67.0629 28.6767 67.0886 28.45 67.1371 28.2367L67.1343 28.2567C65.4989 27.7731 63.995 26.8145 62.7629 25.47L62.7686 25.4767C60.672 27.6738 57.9281 28.8396 55.1114 28.73H55.1286C52.2938 28.8333 49.5364 27.6422 47.4429 25.41L47.4514 25.42C45.4414 27.5589 42.8177 28.7421 40.0972 28.7367L39.7572 28.73H39.7743C36.9398 28.8316 34.1829 27.6407 32.0886 25.41L32.0972 25.42C30.0861 27.5591 27.4614 28.7423 24.74 28.7367L24.3743 28.73H24.3914C21.5568 28.8323 18.7997 27.6413 16.7057 25.41L16.7143 25.42C14.8105 27.4734 12.3319 28.6498 9.74001 28.73H9.72572V70.12H13.0286V52.61C13.0286 51.8867 13.5314 51.3 14.1514 51.3H27.44C28.06 51.3 28.5629 51.8867 28.5629 52.61V70.12L67.0629 70.1167ZM55.1286 26.11C56.2825 26.1589 57.4331 25.9379 58.5127 25.4598C59.5922 24.9818 60.5788 24.2565 61.4143 23.3267L61.4114 23.33C61.3938 23.2392 61.3852 23.1464 61.3857 23.0533V2.62333H48.7857V23.0667L48.7886 23.1567L48.7857 23.25V23.2467C50.4027 25.0893 52.574 26.1195 54.8343 26.1167L55.1486 26.11H55.1343H55.1286ZM24.3914 26.11L24.6943 26.1167C27.0486 26.1167 29.1829 25.0233 30.7457 23.2467L30.7429 23.25L30.74 23.16L30.7429 23.0667V23.07V2.62667H18.0343V23.07L18.0372 23.16L18.0343 23.2533V23.25C19.6512 25.0926 21.8226 26.1229 24.0829 26.12L24.4029 26.1133H24.3886L24.3914 26.11ZM32.6 61.0933C32.4526 61.0933 32.3065 61.0594 32.1703 60.9936C32.0341 60.9278 31.9103 60.8313 31.806 60.7096C31.7018 60.588 31.6191 60.4436 31.5626 60.2846C31.5062 60.1257 31.4772 59.9554 31.4772 59.7833V37.0467C31.4772 36.3233 31.98 35.7367 32.6 35.7367H64.0543C64.6743 35.7367 65.1771 36.3233 65.1771 37.0467V59.7867C65.1771 60.1341 65.0589 60.4673 64.8483 60.713C64.6377 60.9587 64.3521 61.0967 64.0543 61.0967H64.0514L32.6 61.0933Z" fill="#FC9E9E"/>
</g>
<defs>
<clipPath id="clip0_680_719">
<rect width="80" height="80" fill="white"/>
</clipPath>
</defs>
</svg>
