<svg width="50" height="50" viewBox="0 0 50 50" fill="none" xmlns="http://www.w3.org/2000/svg">
<circle cx="25" cy="25" r="25" fill="#FC9E9E"/>
<path d="M24.96 24.4C26.72 24.496 28.056 24.976 28.968 25.84C29.896 26.688 30.36 27.8 30.36 29.176C30.36 30.136 30.128 30.992 29.664 31.744C29.2 32.48 28.512 33.064 27.6 33.496C26.688 33.928 25.576 34.144 24.264 34.144C23.048 34.144 21.896 33.952 20.808 33.568C19.736 33.168 18.872 32.64 18.216 31.984L19.056 30.616C19.616 31.192 20.36 31.664 21.288 32.032C22.216 32.384 23.208 32.56 24.264 32.56C25.64 32.56 26.704 32.264 27.456 31.672C28.208 31.064 28.584 30.232 28.584 29.176C28.584 28.136 28.208 27.32 27.456 26.728C26.704 26.136 25.568 25.84 24.048 25.84H22.848V24.568L27.504 18.736H18.912V17.2H29.712V18.424L24.96 24.4Z" fill="black"/>
</svg>
