<svg width="80" height="80" viewBox="0 0 80 80" fill="none" xmlns="http://www.w3.org/2000/svg">
<path d="M78.6544 69.6689C77.1172 67.8489 58.49 59.1844 55.11 57.5499C51.7477 55.9441 50.4064 51.494 50.4064 51.494C50.4064 51.494 48.8929 52.5004 48.8929 49.674C48.8929 46.8441 50.4064 51.494 51.9198 40.5812C51.9198 40.5812 56.1189 39.1645 55.285 27.4488H54.2761C54.2761 27.4488 56.7985 14.923 54.2761 10.6835C51.7448 6.444 50.7536 3.61767 45.1954 1.59071C39.6461 -0.432688 41.664 -0.029436 37.6341 0.177543C33.5982 0.380953 30.239 3.00744 30.239 4.41704C30.239 4.41704 27.7166 4.62045 26.7135 5.83378C25.7046 7.0471 24.0249 12.6998 24.0249 14.1129C24.0249 15.5261 24.8648 25.0328 25.7046 27.0455L24.7045 27.4381C23.8647 39.1574 28.0638 40.5777 28.0638 40.5777C29.5772 51.4905 31.0907 46.8406 31.0907 49.6705C31.0907 52.4968 29.5772 51.4905 29.5772 51.4905C29.5772 51.4905 28.2329 55.9369 24.8737 57.5464C21.5144 59.1629 2.86636 67.8489 1.34994 69.6653C-0.163504 71.521 0.00564561 80 0.00564561 80H79.9928C79.9928 80 80.1798 71.5139 78.6485 69.6618L78.6544 69.6689ZM59.8551 77.6982H46.3171V73.2375H59.8551V77.6982Z" fill="#FC9E9E"/>
</svg>
