<svg width="62" height="62" viewBox="0 0 62 62" fill="none" xmlns="http://www.w3.org/2000/svg">
<path d="M14.6501 10.9974C24.7974 2.68162 39.7936 3.26029 49.2667 12.7334C59.3546 22.8213 59.3546 39.1789 49.2667 49.2669C39.1788 59.3548 22.8211 59.3548 12.7332 49.2669C9.63744 46.1753 7.37817 42.3476 6.16758 38.1433C4.95699 33.939 4.8348 29.496 5.81248 25.2315L6.01139 24.423L11.0076 25.7405C9.76896 30.448 10.2318 35.4416 12.3144 39.8413C14.3971 44.241 17.9659 47.7643 22.3919 49.7904C26.8179 51.8165 31.817 52.2153 36.5083 50.9165C41.1995 49.6177 45.2818 46.7047 48.0356 42.6908C50.7894 38.6769 52.038 33.8198 51.5613 28.9755C51.0847 24.1311 48.9134 19.6105 45.4301 16.2103C41.9468 12.8101 37.3751 10.7485 32.5207 10.3889C27.6663 10.0293 22.8407 11.3948 18.8945 14.2446L18.3236 14.6735L20.9508 17.3007L9.07781 20.039L11.8161 8.16604L14.6475 10.9974H14.6501ZM33.5833 15.5001V20.6668H40.0416V25.8335H25.8333C25.5105 25.8329 25.1992 25.9531 24.9607 26.1706C24.7222 26.3881 24.5737 26.687 24.5445 27.0084C24.5154 27.3299 24.6076 27.6506 24.8031 27.9074C24.9986 28.1643 25.2832 28.3386 25.6008 28.3961L25.8333 28.4168H36.1666C37.8795 28.4168 39.5222 29.0972 40.7334 30.3084C41.9445 31.5196 42.625 33.1623 42.625 34.8751C42.625 36.588 41.9445 38.2307 40.7334 39.4418C39.5222 40.653 37.8795 41.3335 36.1666 41.3335H33.5833V46.5001H28.4166V41.3335H21.9583V36.1668H36.1666C36.4894 36.1674 36.8007 36.0471 37.0392 35.8296C37.2778 35.6122 37.4262 35.3133 37.4554 34.9918C37.4846 34.6704 37.3923 34.3496 37.1968 34.0928C37.0013 33.836 36.7168 33.6616 36.3991 33.6041L36.1666 33.5835H25.8333C24.1205 33.5835 22.4777 32.903 21.2666 31.6919C20.0554 30.4807 19.375 28.838 19.375 27.1251C19.375 25.4123 20.0554 23.7696 21.2666 22.5584C22.4777 21.3472 24.1205 20.6668 25.8333 20.6668H28.4166V15.5001H33.5833Z" fill="#FC9E9E"/>
</svg>
