<svg width="62" height="62" viewBox="0 0 62 62" fill="none" xmlns="http://www.w3.org/2000/svg">
<path d="M56.9817 41.9856L20.0336 4.99873C19.6737 4.63845 19.2463 4.35263 18.7759 4.15762C18.3055 3.96262 17.8012 3.86224 17.292 3.86224C16.7828 3.86224 16.2785 3.96262 15.8081 4.15762C15.3377 4.35263 14.9103 4.63845 14.5504 4.99873L5.01794 14.5506C4.29621 15.2766 3.89111 16.2588 3.89111 17.2825C3.89111 18.3062 4.29621 19.2883 5.01794 20.0144L41.9661 57.0012C42.3281 57.3604 42.7576 57.6445 43.2297 57.8373C43.7018 58.0302 44.2073 58.1279 44.7173 58.125C45.7406 58.1258 46.7227 57.7218 47.4492 57.0012L56.9817 47.4494C57.7034 46.7233 58.1085 45.7412 58.1085 44.7175C58.1085 43.6938 57.7034 42.7116 56.9817 41.9856ZM44.7173 54.25L7.74981 17.2825L17.2823 7.74998L24.6254 15.0931L20.2661 19.375L22.9979 22.1069L27.3573 17.825L35.3592 25.8269L30.9998 30.1862L33.7511 32.9375L38.1104 28.5781L46.1123 36.58L41.7529 40.9394L44.5623 43.6712L48.9217 39.3119L54.2498 44.7175L44.7173 54.25Z" fill="#FC9E9E"/>
</svg>
