<svg width="70" height="22" viewBox="0 0 70 22" fill="none" xmlns="http://www.w3.org/2000/svg">
<path d="M50.8859 0.88031C49.2591 0.286454 47.5395 -0.0115461 45.8081 0.000342154C40.209 0.000342154 36.2546 2.82606 36.2266 6.88233C36.1916 9.86231 39.0366 11.5416 41.1888 12.5373C43.397 13.561 44.1354 14.2061 44.1284 15.1211C44.1144 16.5129 42.3646 17.144 40.7374 17.144C38.5012 17.144 37.2799 16.8319 35.4007 16.0501L34.7043 15.7241L33.9099 20.3939C35.2712 20.9618 37.7243 21.4492 40.258 21.4912C46.2106 21.4912 50.102 18.683 50.1475 14.3673C50.1965 11.9869 48.6567 10.1884 45.4162 8.70187C43.446 7.73776 42.2247 7.09268 42.2247 6.11455C42.2247 5.2486 43.271 4.32306 45.4582 4.32306C46.9138 4.28778 48.3604 4.56138 49.703 5.1259L50.228 5.36079L51.0223 0.848758L50.8859 0.88031ZM65.4157 0.378974H61.0413C59.68 0.378974 58.6547 0.7541 58.0598 2.10736L49.647 21.2002H55.5997L56.7895 18.0695L64.0544 18.0765C64.2259 18.8092 64.7508 21.2002 64.7508 21.2002H70L65.4157 0.378974ZM28.1743 0.20368H33.8469L30.2985 21.0355H24.6328L28.1743 0.196669V0.20368ZM13.7739 11.6854L14.3618 14.5777L19.905 0.378974H25.9136L16.9865 21.1722H10.9918L6.09259 3.56579C6.01324 3.27548 5.82689 3.02615 5.57116 2.86813C3.80533 1.95429 1.93432 1.26079 0 0.80318L0.0769883 0.364948H9.20712C10.4459 0.41403 11.4433 0.803181 11.7757 2.12839L13.7704 11.6959V11.6854H13.7739ZM58.4167 13.8099L60.6774 7.98317C60.6494 8.04628 61.1428 6.78066 61.4298 5.99886L61.8182 7.79736L63.1305 13.8064H58.4132V13.8099H58.4167Z" fill="#7E7E7E"/>
</svg>
