<svg width="143" height="58" viewBox="0 0 143 58" fill="none" xmlns="http://www.w3.org/2000/svg">
<rect x="1" y="4" width="53" height="53" stroke="#FFB4B4" stroke-width="2"/>
<path d="M38.304 48.432C37.992 48.432 37.788 48.3 37.692 48.036C37.596 47.772 37.548 47.28 37.548 46.56V45.012C37.548 42.996 37.668 38.892 37.908 32.7C38.004 29.652 38.088 27.324 38.16 25.716L38.232 23.376C38.28 22.392 38.328 20.892 38.376 18.876C37.248 21.396 35.244 25.416 32.364 30.936C29.22 36.912 27.288 40.632 26.568 42.096C26.328 42.6 26.028 42.852 25.668 42.852C25.332 42.852 25.092 42.684 24.948 42.348C24.9 42.132 24.84 41.88 24.768 41.592C24.72 41.304 24.66 40.98 24.588 40.62L22.176 29.784C21.192 25.44 20.34 21.516 19.62 18.012C18.804 22.164 17.568 27.66 15.912 34.5C15.24 37.236 14.7 39.456 14.292 41.16C13.884 42.864 13.56 44.208 13.32 45.192L12.744 47.676C12.528 48.156 12.204 48.396 11.772 48.396C11.412 48.396 11.196 48.156 11.124 47.676C11.772 44.1 13.068 38.208 15.012 30C16.812 22.584 18.072 17.268 18.792 14.052C18.864 13.812 18.996 13.608 19.188 13.44C19.404 13.272 19.608 13.188 19.8 13.188C20.112 13.188 20.328 13.392 20.448 13.8C21.432 18 22.44 22.596 23.472 27.588C24.48 32.484 25.308 36.3 25.956 39.036C27.204 36.9 28.356 34.812 29.412 32.772C30.468 30.708 31.824 28.02 33.48 24.708L34.488 22.692C35.784 20.052 37.248 17.16 38.88 14.016C39.216 13.44 39.576 13.152 39.96 13.152C40.32 13.152 40.5 13.332 40.5 13.692V13.8C39.828 24.984 39.432 35.94 39.312 46.668C39.36 46.812 39.384 46.944 39.384 47.064C39.384 47.4 39.276 47.712 39.06 48C38.844 48.288 38.592 48.432 38.304 48.432ZM52.9223 48.048C52.5543 48.048 52.2103 47.856 51.8903 47.472C51.5863 47.072 51.4343 46.648 51.4343 46.2C51.4343 45.208 51.6983 43.528 52.2263 41.16C51.8263 42.024 51.3063 42.912 50.6663 43.824C50.0423 44.72 49.4263 45.512 48.8183 46.2C48.2103 46.888 47.7623 47.336 47.4743 47.544C47.0743 47.848 46.6343 48 46.1543 48C45.2423 48 44.7863 47.424 44.7863 46.272C44.7863 45.152 45.2103 43.76 46.0583 42.096C46.9063 40.416 47.9143 38.96 49.0823 37.728C50.2503 36.512 51.1943 35.904 51.9143 35.904C52.6503 35.904 53.0663 36.224 53.1623 36.864C53.2103 37.056 53.2343 37.264 53.2343 37.488C53.3143 37.44 53.4023 37.416 53.4983 37.416C53.8663 37.416 54.0503 37.592 54.0503 37.944V38.04L53.7623 39.096C53.5383 39.896 53.3063 41.08 53.0663 42.648C52.8263 44.216 52.7063 45.52 52.7063 46.56L52.9463 46.704C53.3303 46.944 53.5223 47.184 53.5223 47.424C53.5223 47.584 53.4663 47.728 53.3543 47.856C53.2423 47.984 53.0983 48.048 52.9223 48.048ZM46.3463 46.752C46.5223 46.752 46.6663 46.696 46.7783 46.584C48.4103 45.192 49.8583 43.264 51.1223 40.8C51.8423 39.44 52.2343 38.632 52.2983 38.376C52.3303 38.088 52.3463 37.912 52.3463 37.848C52.3463 37.688 52.3063 37.544 52.2263 37.416C52.1463 37.288 52.0423 37.224 51.9143 37.224C51.7543 37.224 51.5463 37.296 51.2903 37.44C50.6503 37.776 49.8903 38.488 49.0103 39.576C48.1463 40.664 47.4343 41.816 46.8743 43.032C46.2823 44.264 45.9863 45.36 45.9863 46.32C45.9863 46.608 46.1063 46.752 46.3463 46.752ZM58.1836 48.12C57.4636 48.12 56.8956 47.896 56.4796 47.448C56.0796 47 55.8796 46.48 55.8796 45.888C55.8796 45.36 55.9676 44.848 56.1436 44.352C56.3196 43.84 56.5756 43.304 56.9116 42.744C57.2156 42.232 57.5436 41.744 57.8956 41.28C58.3756 40.64 58.7196 40.16 58.9276 39.84C59.6796 38.72 60.1036 37.752 60.1996 36.936C60.0716 36.648 59.8476 36.504 59.5276 36.504C59.1916 36.504 58.8076 36.672 58.3756 37.008C58.0076 37.312 57.8076 37.552 57.7756 37.728C57.7596 37.872 57.6796 38.016 57.5356 38.16C57.4076 38.304 57.2876 38.376 57.1756 38.376C56.8556 38.376 56.6956 38.232 56.6956 37.944C56.6956 37.544 56.8636 37.152 57.1996 36.768C57.5356 36.368 57.9516 36.04 58.4476 35.784C58.9436 35.528 59.4236 35.4 59.8876 35.4C60.8316 35.4 61.3036 35.96 61.3036 37.08C61.3036 37.992 60.5836 39.408 59.1436 41.328C57.6876 43.264 56.9596 44.624 56.9596 45.408C56.9596 45.968 57.0796 46.376 57.3196 46.632C57.5596 46.872 57.8476 46.992 58.1836 46.992C58.4876 46.992 58.7436 46.936 58.9516 46.824C59.3676 46.616 59.8556 46.232 60.4156 45.672C60.9916 45.096 61.4156 44.808 61.6876 44.808C61.9596 44.808 62.0956 44.944 62.0956 45.216C62.0956 45.392 62.0316 45.552 61.9036 45.696C61.1676 46.528 60.5356 47.144 60.0076 47.544C59.4796 47.928 58.8716 48.12 58.1836 48.12ZM70.598 48.24C70.422 48.24 70.23 48.096 70.022 47.808C69.83 47.504 69.734 47.24 69.734 47.016V46.608C69.734 46.112 70.078 44.616 70.766 42.12L71.078 40.8L70.43 42.168C70.222 42.696 69.886 43.44 69.422 44.4C68.238 46.928 66.974 48.192 65.63 48.192C64.83 48.192 64.286 47.752 63.998 46.872C63.918 46.584 63.878 46.224 63.878 45.792C63.878 44.896 64.046 43.752 64.382 42.36C64.574 41.56 64.734 40.968 64.862 40.584L65.054 39.96C65.23 39.352 65.406 38.712 65.582 38.04C65.774 37.352 65.878 36.832 65.894 36.48C65.942 36.32 66.03 36.184 66.158 36.072C66.302 35.96 66.454 35.904 66.614 35.904C66.774 35.904 66.902 36.112 66.998 36.528C66.998 36.944 66.918 37.456 66.758 38.064C66.598 38.656 66.438 39.184 66.278 39.648C66.134 40.112 66.046 40.408 66.014 40.536C65.358 42.6 65.03 44.392 65.03 45.912C65.03 46.392 65.214 46.728 65.582 46.92C65.71 46.984 65.886 47.016 66.11 47.016C66.558 47.016 67.094 46.568 67.718 45.672C68.294 44.84 68.878 43.8 69.47 42.552C70.062 41.304 70.542 40.168 70.91 39.144C71.294 38.04 71.614 37.232 71.87 36.72C72.126 36.208 72.406 35.952 72.71 35.952C72.982 35.952 73.118 36.088 73.118 36.36C73.118 36.568 72.99 37.136 72.734 38.064C72.494 38.848 72.334 39.408 72.254 39.744C72.174 40.064 72.078 40.52 71.966 41.112L71.39 44.376L71.126 45.744C71.11 45.888 71.07 46.104 71.006 46.392C71.006 46.696 71.054 46.896 71.15 46.992L71.366 47.28C71.414 47.328 71.438 47.432 71.438 47.592C71.438 47.752 71.342 47.896 71.15 48.024C70.974 48.168 70.79 48.24 70.598 48.24ZM74.2936 48.24C73.6696 48.24 73.1656 48.064 72.7816 47.712C72.6696 47.616 72.6136 47.48 72.6136 47.304C72.6136 47.144 72.6856 47 72.8296 46.872C72.9576 46.744 73.1096 46.68 73.2856 46.68C73.4616 46.68 73.5816 46.736 73.6456 46.848C73.7576 46.96 73.8536 47.04 73.9336 47.088C74.0296 47.12 74.1976 47.136 74.4376 47.136C74.9176 47.136 75.4376 46.816 75.9976 46.176C76.2056 45.968 76.5096 45.592 76.9096 45.048C77.5496 44.184 78.0536 43.536 78.4216 43.104C78.5336 42.96 78.7016 42.76 78.9256 42.504C79.0376 42.344 79.2056 42.136 79.4296 41.88L79.7896 41.448C78.9576 42.2 78.2616 42.576 77.7016 42.576C77.3176 42.576 77.0056 42.456 76.7656 42.216C76.5416 41.96 76.4296 41.576 76.4296 41.064C76.4296 40.504 76.6696 39.768 77.1496 38.856C77.6296 37.944 78.2056 37.168 78.8776 36.528C79.6136 35.872 80.2936 35.544 80.9176 35.544C81.5416 35.544 82.0296 35.76 82.3816 36.192C82.3976 36.224 82.4856 36.36 82.6456 36.6C82.6936 36.568 82.7816 36.552 82.9096 36.552C83.1336 36.552 83.2696 36.688 83.3176 36.96C83.3176 37.712 83.0616 38.536 82.5496 39.432C82.4216 39.64 82.3256 39.752 82.2616 39.768L82.1656 40.296C82.0216 41.096 81.9016 41.72 81.8056 42.168C81.2936 44.616 81.0136 46.176 80.9656 46.848C80.9176 47.392 80.8536 47.744 80.7736 47.904C80.6936 48.048 80.5256 48.12 80.2696 48.12C80.0456 48.12 79.9096 48.08 79.8616 48C79.8136 47.904 79.7896 47.76 79.7896 47.568C79.9496 45.92 80.3256 43.808 80.9176 41.232C80.0216 42.24 79.1976 43.28 78.4456 44.352L76.9576 46.392C76.5416 46.968 76.1336 47.424 75.7336 47.76C75.3496 48.08 74.8696 48.24 74.2936 48.24ZM78.0856 41.76C78.7736 41.76 79.6296 41.184 80.6536 40.032C80.9576 39.696 81.1736 39.448 81.3016 39.288C81.4936 38.52 81.6776 37.928 81.8536 37.512C81.6456 37.128 81.4696 36.896 81.3256 36.816C81.2136 36.752 81.0536 36.72 80.8456 36.72C80.4296 36.72 79.9496 36.96 79.4056 37.44C78.8616 37.92 78.4136 38.488 78.0616 39.144C77.7096 39.8 77.5336 40.352 77.5336 40.8C77.5336 41.44 77.7176 41.76 78.0856 41.76ZM92.5949 48.912C92.3389 48.912 92.1869 48.744 92.1389 48.408C92.6189 44.44 93.6749 38.984 95.3069 32.04C95.4029 31.656 95.4429 31.488 95.4269 31.536C95.5869 30.816 95.7309 30.248 95.8589 29.832C95.9869 29.368 96.0749 28.976 96.1229 28.656C96.1709 28.32 96.2029 28.08 96.2189 27.936L96.3629 27.048C96.3789 26.856 96.4189 26.568 96.4829 26.184C94.6589 26.136 93.4029 26.112 92.7149 26.112C92.0269 26.112 91.2749 26.136 90.4589 26.184C90.1229 26.136 89.9549 26 89.9549 25.776C89.9549 25.552 90.0589 25.376 90.2669 25.248C90.4749 25.12 90.7789 25.048 91.1789 25.032C91.3229 25.016 91.5549 25.008 91.8749 25.008L96.7709 25.104C96.9949 24.432 97.2989 24.096 97.6829 24.096C97.9069 24.096 98.0429 24.232 98.0909 24.504L98.1389 24.984L98.1149 25.104L99.3149 25.032L100.299 24.984L101.643 24.888C102.235 24.84 102.899 24.816 103.635 24.816H104.499C104.643 24.816 104.747 24.808 104.811 24.792C105.083 24.872 105.219 25.008 105.219 25.2C105.219 25.68 104.827 25.92 104.043 25.92C103.163 25.92 102.083 25.96 100.803 26.04C99.6029 26.12 98.5469 26.168 97.6349 26.184C97.3149 27.784 96.9949 29.264 96.6749 30.624C96.2589 32.4 95.6749 35.184 94.9229 38.976C94.1869 42.768 93.6269 45.856 93.2429 48.24C93.2109 48.416 93.1229 48.568 92.9789 48.696C92.8509 48.84 92.7229 48.912 92.5949 48.912Z" fill="#515151"/>
<path d="M99.584 48.24C99.328 48.24 99.184 48.072 99.152 47.736L99.416 46.224C99.576 45.2 99.768 44.088 99.992 42.888L100.136 42.024C100.488 39.992 100.704 38.808 100.784 38.472C100.96 37.656 101.08 36.968 101.144 36.408C101.192 36.248 101.28 36.112 101.408 36C101.552 35.888 101.696 35.832 101.84 35.832C102.032 35.832 102.168 35.968 102.248 36.24C102.248 36.496 102.216 36.784 102.152 37.104C102.088 37.312 102.008 37.752 101.912 38.424L101.504 40.56C103.296 38.064 104.816 36.52 106.064 35.928C106.352 35.784 106.64 35.712 106.928 35.712C107.2 35.712 107.496 35.912 107.816 36.312C108.152 36.712 108.32 37.064 108.32 37.368C108.32 37.624 108.256 37.824 108.128 37.968C108 38.112 107.848 38.184 107.672 38.184C107.432 38.184 107.216 37.96 107.024 37.512C107.008 37.48 106.968 37.4 106.904 37.272C106.856 37.128 106.8 37.024 106.736 36.96C106.688 36.88 106.632 36.84 106.568 36.84C106.456 36.84 106.232 36.936 105.896 37.128C105.576 37.304 105.056 37.776 104.336 38.544C103.632 39.296 103.088 39.936 102.704 40.464C102.848 41.968 103.152 43.296 103.616 44.448C104.08 45.6 104.584 46.384 105.128 46.8C105.416 47.008 105.688 47.112 105.944 47.112C106.216 47.112 106.432 47.04 106.592 46.896C106.768 46.752 106.904 46.52 107 46.2C107.128 45.88 107.232 45.712 107.312 45.696C107.36 45.664 107.448 45.648 107.576 45.648C107.672 45.648 107.784 45.704 107.912 45.816C108.024 45.928 108.08 46.136 108.08 46.44C108.08 46.76 107.944 47.064 107.672 47.352C107.144 47.944 106.616 48.24 106.088 48.24C104.552 48.24 103.36 46.976 102.512 44.448C102.144 43.392 101.912 42.488 101.816 41.736C101.768 41.8 101.592 42.104 101.288 42.648L101 43.176C100.744 44.568 100.496 46.032 100.256 47.568C100.24 47.744 100.16 47.896 100.016 48.024C99.872 48.168 99.728 48.24 99.584 48.24ZM117.512 48.048C117.144 48.048 116.8 47.856 116.48 47.472C116.176 47.072 116.024 46.648 116.024 46.2C116.024 45.208 116.288 43.528 116.816 41.16C116.416 42.024 115.896 42.912 115.256 43.824C114.632 44.72 114.016 45.512 113.408 46.2C112.8 46.888 112.352 47.336 112.064 47.544C111.664 47.848 111.224 48 110.744 48C109.832 48 109.376 47.424 109.376 46.272C109.376 45.152 109.8 43.76 110.648 42.096C111.496 40.416 112.504 38.96 113.672 37.728C114.84 36.512 115.784 35.904 116.504 35.904C117.24 35.904 117.656 36.224 117.752 36.864C117.8 37.056 117.824 37.264 117.824 37.488C117.904 37.44 117.992 37.416 118.088 37.416C118.456 37.416 118.64 37.592 118.64 37.944V38.04L118.352 39.096C118.128 39.896 117.896 41.08 117.656 42.648C117.416 44.216 117.296 45.52 117.296 46.56L117.536 46.704C117.92 46.944 118.112 47.184 118.112 47.424C118.112 47.584 118.056 47.728 117.944 47.856C117.832 47.984 117.688 48.048 117.512 48.048ZM110.936 46.752C111.112 46.752 111.256 46.696 111.368 46.584C113 45.192 114.448 43.264 115.712 40.8C116.432 39.44 116.824 38.632 116.888 38.376C116.92 38.088 116.936 37.912 116.936 37.848C116.936 37.688 116.896 37.544 116.816 37.416C116.736 37.288 116.632 37.224 116.504 37.224C116.344 37.224 116.136 37.296 115.88 37.44C115.24 37.776 114.48 38.488 113.6 39.576C112.736 40.664 112.024 41.816 111.464 43.032C110.872 44.264 110.576 45.36 110.576 46.32C110.576 46.608 110.696 46.752 110.936 46.752ZM128.269 48.264C127.821 48.264 127.477 48.144 127.237 47.904C127.013 47.664 126.901 47.352 126.901 46.968C126.901 46.568 127.005 45.88 127.213 44.904L127.765 42C126.597 42.88 125.517 43.32 124.525 43.32C123.805 43.32 123.253 43.128 122.869 42.744C122.837 42.904 122.805 43.064 122.773 43.224C122.757 43.384 122.733 43.544 122.701 43.704C122.637 44.232 122.557 44.768 122.461 45.312C122.173 47.216 121.741 48.168 121.165 48.168C120.925 48.168 120.781 48 120.733 47.664C120.877 46.416 121.229 44.48 121.789 41.856C122.365 39.216 122.773 37.432 123.013 36.504C123.061 36.344 123.149 36.208 123.277 36.096C123.421 35.984 123.565 35.928 123.709 35.928C123.901 35.928 124.037 36.064 124.117 36.336C124.117 36.592 123.973 37.424 123.685 38.832C123.461 39.904 123.285 40.824 123.157 41.592C123.509 41.992 124.061 42.192 124.813 42.192C125.549 42.192 126.357 41.824 127.237 41.088C127.509 40.848 127.765 40.592 128.005 40.32L128.365 38.712C128.637 37.544 128.933 36.736 129.253 36.288C129.413 36.032 129.629 35.904 129.901 35.904C130.173 35.904 130.309 36.056 130.309 36.36V36.48C129.429 39.504 128.877 41.696 128.653 43.056C128.445 44.224 128.309 45.144 128.245 45.816C128.197 46.344 128.165 46.632 128.149 46.68L128.125 46.992C128.125 47.088 128.165 47.136 128.245 47.136C128.309 47.136 128.365 47.112 128.413 47.064C128.493 47.016 128.621 46.992 128.797 46.992C129.069 46.992 129.205 47.136 129.205 47.424C129.205 47.984 128.893 48.264 128.269 48.264ZM138.914 48.24C138.738 48.24 138.546 48.096 138.338 47.808C138.146 47.504 138.05 47.24 138.05 47.016V46.608C138.05 46.112 138.394 44.616 139.082 42.12L139.394 40.8L138.746 42.168C138.538 42.696 138.202 43.44 137.738 44.4C136.554 46.928 135.29 48.192 133.946 48.192C133.146 48.192 132.602 47.752 132.314 46.872C132.234 46.584 132.194 46.224 132.194 45.792C132.194 44.896 132.362 43.752 132.698 42.36C132.89 41.56 133.05 40.968 133.178 40.584L133.37 39.96C133.546 39.352 133.722 38.712 133.898 38.04C134.09 37.352 134.194 36.832 134.21 36.48C134.258 36.32 134.346 36.184 134.474 36.072C134.618 35.96 134.77 35.904 134.93 35.904C135.09 35.904 135.218 36.112 135.314 36.528C135.314 36.944 135.234 37.456 135.074 38.064C134.914 38.656 134.754 39.184 134.594 39.648C134.45 40.112 134.362 40.408 134.33 40.536C133.674 42.6 133.346 44.392 133.346 45.912C133.346 46.392 133.53 46.728 133.898 46.92C134.026 46.984 134.202 47.016 134.426 47.016C134.874 47.016 135.41 46.568 136.034 45.672C136.61 44.84 137.194 43.8 137.786 42.552C138.378 41.304 138.858 40.168 139.226 39.144C139.61 38.04 139.93 37.232 140.186 36.72C140.442 36.208 140.722 35.952 141.026 35.952C141.298 35.952 141.434 36.088 141.434 36.36C141.434 36.568 141.306 37.136 141.05 38.064C140.81 38.848 140.65 39.408 140.57 39.744C140.49 40.064 140.394 40.52 140.282 41.112L139.706 44.376L139.442 45.744C139.426 45.888 139.386 46.104 139.322 46.392C139.322 46.696 139.37 46.896 139.466 46.992L139.682 47.28C139.73 47.328 139.754 47.432 139.754 47.592C139.754 47.752 139.658 47.896 139.466 48.024C139.29 48.168 139.106 48.24 138.914 48.24Z" fill="#515151"/>
</svg>
